<svg width="366" height="283" viewBox="0 0 366 283" fill="none" xmlns="http://www.w3.org/2000/svg">
<path fill-rule="evenodd" clip-rule="evenodd" d="M48.9151 283C18.2482 244.037 0 195.157 0 142.09C0 88.4851 18.6192 39.1539 49.8494 0H361C363.761 0 366 2.23858 366 5V278C366 280.761 363.761 283 361 283H48.9151Z" fill="#F2A800"/>
<path d="M123 101.144C123 93.0882 125.619 86.5651 130.856 81.5752C136.093 76.5251 142.955 74 151.442 74C160.05 74 166.973 76.495 172.21 81.485C177.447 86.4148 180.065 93.1182 180.065 101.595V108.088C180.065 116.204 177.447 122.727 172.21 127.657C166.973 132.587 160.111 135.052 151.623 135.052C143.075 135.052 136.153 132.587 130.856 127.657C125.619 122.667 123 115.964 123 107.547V101.144ZM140.336 108.088C140.336 111.695 141.36 114.611 143.406 116.836C145.513 119 148.252 120.082 151.623 120.082C154.994 120.082 157.673 118.97 159.659 116.745C161.646 114.521 162.639 111.545 162.639 107.818V101.144C162.639 97.5371 161.646 94.6212 159.659 92.3968C157.673 90.1723 154.934 89.0601 151.442 89.0601C148.132 89.0601 145.453 90.1723 143.406 92.3968C141.36 94.5611 140.336 97.5972 140.336 101.505V108.088ZM185.844 175.002C185.844 166.886 188.493 160.363 193.79 155.433C199.087 150.443 205.95 147.948 214.377 147.948C222.925 147.948 229.817 150.413 235.054 155.343C240.351 160.212 243 166.946 243 175.543V182.036C243 190.092 240.412 196.615 235.235 201.605C230.058 206.535 223.166 209 214.558 209C205.889 209 198.937 206.505 193.7 201.515C188.463 196.525 185.844 189.912 185.844 181.675V175.002ZM203.181 182.036C203.181 185.343 204.264 188.168 206.431 190.513C208.598 192.858 211.307 194.03 214.558 194.03C221.901 194.03 225.573 189.972 225.573 181.856V175.002C225.573 171.395 224.55 168.509 222.503 166.345C220.457 164.12 217.748 163.008 214.377 163.008C211.006 163.008 208.297 164.12 206.251 166.345C204.204 168.509 203.181 171.485 203.181 175.273V182.036ZM156.77 197.367L144.038 190.513L208.237 87.8878L220.968 94.7415L156.77 197.367Z" fill="white"/>
</svg>
