<svg width="40" height="36" viewBox="0 0 40 36" fill="none" xmlns="http://www.w3.org/2000/svg">
<path d="M37.4344 30.1607L36.7373 33.5771C36.4906 34.786 35.4272 35.6544 34.1932 35.6544H4.07827C2.43553 35.6544 1.20575 34.1483 1.5341 32.5387L4.43024 18.3445C4.63238 17.3542 5.3545 16.5827 6.27613 16.2856C6.34175 16.2644 6.40859 16.2456 6.47604 16.2293C6.47947 16.2285 6.48291 16.2279 6.48634 16.227C6.54975 16.2119 6.61376 16.1988 6.67858 16.1881C6.69898 16.1848 6.71957 16.1828 6.74017 16.18C6.79005 16.1729 6.84013 16.1659 6.89081 16.1616C6.96513 16.1556 7.04004 16.1517 7.11577 16.1517H8.29547H32.0702H34.0896H37.4342H38.6935C39.0549 16.1517 39.3766 16.2967 39.6103 16.5275C39.8439 16.7583 39.9897 17.0752 39.9992 17.4189C40.0018 17.517 39.9935 17.6174 39.9729 17.7185L37.4344 30.1607ZM37.4215 14.1324C37.3003 12.9787 36.322 12.0765 35.1368 12.0765H34.0896V14.1324H37.4215ZM2.45189 17.9409C2.84506 16.0138 4.39107 14.5486 6.27633 14.2079V8.64582H2.69583C1.20939 8.64582 0 9.8552 0 11.3414V29.9568L2.45189 17.9409ZM32.0702 1.47936V14.1324H8.29567V1.47936C8.29567 0.854376 8.80435 0.345703 9.42933 0.345703H30.9368C31.5618 0.345703 32.0702 0.854174 32.0702 1.47936ZM29.1644 10.4204C29.1644 9.86288 28.7125 9.41075 28.1547 9.41075H12.2112C11.6536 9.41075 11.2015 9.86288 11.2015 10.4204C11.2015 10.978 11.6536 11.4301 12.2112 11.4301H28.1547C28.7125 11.4301 29.1644 10.978 29.1644 10.4204ZM29.1644 5.20707C29.1644 4.64953 28.7125 4.1974 28.1547 4.1974H12.2112C11.6536 4.1974 11.2015 4.64953 11.2015 5.20707C11.2015 5.76462 11.6536 6.21675 12.2112 6.21675H28.1547C28.7125 6.21675 29.1644 5.76462 29.1644 5.20707Z" fill="black"/>
</svg>
